<svg width="75" height="75" viewBox="0 0 75 75" fill="none" xmlns="http://www.w3.org/2000/svg">
<path d="M22.8358 25H2C0.895431 25 0 25.8954 0 27V30C0 31.1046 0.895431 32 2 32H30C31.1046 32 32 31.1046 32 30V2C32 0.895431 31.1046 0 30 0H26.8358C25.7313 0 24.8358 0.89543 24.8358 2V23C24.8358 24.1046 23.9404 25 22.8358 25Z" fill="white" fill-opacity="0.5"/>
<path d="M22.8358 50H2C0.895431 50 0 49.1046 0 48V45C0 43.8954 0.895431 43 2 43H30C31.1046 43 32 43.8954 32 45V73C32 74.1046 31.1046 75 30 75H26.8358C25.7313 75 24.8358 74.1046 24.8358 73V52C24.8358 50.8954 23.9404 50 22.8358 50Z" fill="white" fill-opacity="0.5"/>
<path d="M52.1642 25H73C74.1046 25 75 25.8954 75 27V30C75 31.1046 74.1046 32 73 32H45C43.8954 32 43 31.1046 43 30V2C43 0.895431 43.8954 0 45 0H48.1642C49.2687 0 50.1642 0.89543 50.1642 2V23C50.1642 24.1046 51.0596 25 52.1642 25Z" fill="white" fill-opacity="0.5"/>
<path d="M52.1642 50H73C74.1046 50 75 49.1046 75 48V45C75 43.8954 74.1046 43 73 43H45C43.8954 43 43 43.8954 43 45V73C43 74.1046 43.8954 75 45 75H48.1642C49.2687 75 50.1642 74.1046 50.1642 73V52C50.1642 50.8954 51.0596 50 52.1642 50Z" fill="white" fill-opacity="0.5"/>
</svg>
